<?xml version="1.0" encoding="UTF-8"?>
<svg id="Layer_1" xmlns="http://www.w3.org/2000/svg" xmlns:xlink="http://www.w3.org/1999/xlink" version="1.1" viewBox="0 0 595.28 158.45">
  <!-- Generator: Adobe Illustrator 30.7.0, SVG Export Plug-In . SVG Version: 2.1.4 Build 114)  -->
  <defs>
    <style>
      .st0 {
        fill: #040b14;
      }

      .st1 {
        fill: url(#linear-gradient);
      }
    </style>
    <linearGradient id="linear-gradient" x1="335.19" y1="42.57" x2="418.58" y2="42.57" gradientUnits="userSpaceOnUse">
      <stop offset="0" stop-color="#0b6ff9" stop-opacity="0"/>
      <stop offset="1" stop-color="#0b6ff9"/>
    </linearGradient>
  </defs>
  <path class="st0" d="M209.52,123.89l9.35-8.99c6.09,5.53,14.72,7.83,22.47,5.25,8.26-2.75,10.27-10.17,9.25-19.13-4.44,4.5-9.21,6.91-15.41,7.49-10.86,1-21.65-4.32-27.03-14.01-4.76-8.58-5.1-18.93-.89-27.81,5.23-11.03,17.12-17.19,29.11-15.52,6.03.84,10.6,3.71,14.77,8.44l.27-7.67h13.62l-.13,55.53c-.02,10.14-6.01,18.64-15.24,22.7-12.56,5.52-29.04,3.5-40.13-6.29h-.01ZM251.54,79.8c0-9.2-7.46-16.65-16.67-16.65s-16.67,7.46-16.67,16.65,7.46,16.65,16.67,16.65,16.67-7.46,16.67-16.65Z"/>
  <path class="st0" d="M294.37,65.62c-4.5,2.83-6.76,7.85-6.77,13.05l-.08,28.95-13.95-.07-.02-55.63h14.01l.16,8.4c4.55-7.02,11.94-10.04,19.88-9.43,10.82.83,18.54,8.81,19.43,19.78l.06,36.9-13.97.03.11-31.92c-.35-2.82-.85-5.79-2.71-7.97-4-4.67-10.74-5.49-16.14-2.1h-.01Z"/>
  <rect class="st0" x="429.87" y="61.99" width="77.22" height="14.01" transform="translate(399.32 537.45) rotate(-89.98)"/>
  <rect class="st0" x="163.34" y="72.87" width="55.72" height="13.79" transform="translate(111.33 270.92) rotate(-89.97)"/>
  <ellipse class="st0" cx="191.01" cy="36.71" rx="9.15" ry="9.14"/>
  <path class="st0" d="M576.28,89.62l10.46,6.67c-8.86,11.88-25.05,15.28-38.34,9.77-10.61-4.4-16.84-14.28-17.07-25.66-.23-11.67,5.85-22.16,16.65-26.91s23.2-3.06,32.53,4.08c7.91,7.39,10.1,15.96,9.34,26.54l-44.74.04c.58,4.38,3.02,7.76,6.72,9.88,8.04,4.62,18.36,2.99,24.45-4.41ZM576.13,74.33c-.66-4.78-3.45-7.88-7.26-9.91-5.46-2.62-11.9-2.53-17.15.54-3.54,2.07-5.82,5.34-6.5,9.36h30.91Z"/>
  <path class="st0" d="M521.25,104.48c-11.63,7.32-30.76,4.83-40.44-5.88l8.61-8.02c5.39,5.09,12.59,7.71,19.91,6.35,3.93-.73,6.38-3.39,5.55-6.58-.27-1.02-1.62-2.53-2.96-2.9l-11.79-3.22c-4.6-1.26-9.11-2.58-12.71-5.73s-5.02-7.77-4.5-12.76c.44-4.28,3.01-8.31,7.13-10.93,10.73-6.84,28.31-4.84,37.38,5.13l-8.58,7.69c-7.17-7.66-22.57-7.3-22.7-.34-.04,2.01,1.46,3.6,3.54,4.16l12.84,3.46c4.41,1.19,8.98,2.84,12.17,6.26,6.52,6.97,4.51,18.29-3.47,23.31h.02Z"/>
  <path class="st0" d="M30.85,108.49c-16.01-1.02-27.45-14.57-26.69-30.26.43-8.87,4.75-17.1,11.51-21.93,10.66-7.62,25.5-7.82,35.54,2.97l.08-28.73,13.51-.14-.03,77.17-13.46.02-.27-7.36c-5.39,6-12.23,8.77-20.19,8.26ZM51.45,79.78c0-9.2-7.47-16.67-16.68-16.67s-16.68,7.46-16.68,16.67,7.47,16.67,16.68,16.67,16.68-7.46,16.68-16.67Z"/>
  <path class="st0" d="M91.17,94.51c7.89,4.09,17.61,1.99,23.35-4.65l10.42,6.42c-5.14,7.2-13.01,11.16-21.65,12.09-17.7,1.91-33.04-9.75-33.48-27.97-.33-13.57,8.34-25.4,21.64-28.62,14.85-3.59,30.87,3.12,35.45,18.29,1.4,4.62,1.59,9.31,1.39,14.07l-44.62-.04c.7,4.42,3.18,8.18,7.5,10.42h0ZM114.4,74.33c-.62-4.54-3.18-7.53-6.65-9.62-2.78-1.72-5.89-2.14-9.21-2.15-7.13-.02-13.62,4.7-14.77,11.8l30.63-.03Z"/>
  <path class="st0" d="M156.59,108.53c-9.62.44-18.66-2.65-25.31-9.83l8.32-8.07c4.51,4.04,9.66,6.53,15.62,6.64,5.16.1,10.21-1.65,10.07-5.92-.05-1.43-1.13-3.17-2.76-3.66l-7.56-2.31-11.44-3.21c-3.27-.92-6.17-3.22-8.06-6.08-3.12-4.72-3.26-11.01-.46-15.91,1.89-3.3,5.07-5.43,8.46-7.02,10.46-4.89,26.37-2.13,34.05,6.8l-8.28,7.56c-7.13-7.35-22.78-7.43-22.97-.22-.05,1.85,1.37,3.57,3.37,4.12l11.43,3.12c3.81,1.04,7.56,2.09,10.89,4.07,4.57,2.71,6.9,7.25,6.8,12.5-.23,11.95-10.63,17.06-22.18,17.41h0Z"/>
  <path class="st0" d="M394.14,68.88c-.22.02-.44.03-.67.03-2.81,0-5.35-1.77-6.33-4.41l-2.15-5.81c-1.05-2.84-3.67-4.87-6.69-5.17l-17.62-1.74c-4.33,1.25-8.34,3.72-11.51,7.56l-.29-7.42-13.7.04v78.89l13.76-.09v-30.38c5.89,6.44,13.89,9.13,22.32,7.97,13.45-1.85,23.34-12.29,24.56-25.83.45-4.74-.11-9.4-1.68-13.66v.02ZM365.46,96.52c-9.23,0-16.72-7.48-16.72-16.7s7.49-16.7,16.72-16.7,16.72,7.48,16.72,16.7-7.49,16.7-16.72,16.7Z"/>
  <path class="st0" d="M453.7,107.57h-13.82l-.06-8.07c-3.86,4.86-8.17,8.02-14.01,8.8-6.48.86-12.91-.56-17.85-4.95-4.16-3.7-5.78-8.91-6.63-14.46l-.03-28.39,1.21-3.28c.89-2.39,2.88-4.23,5.34-4.92l1.28-.36,6.09-.02-.03,33.3c.42,5.73,3.86,10.27,9.6,10.83,7.79.76,14.01-4.73,15.06-12.55l.07-31.54,13.77-.02.02,55.63h0Z"/>
  <path class="st1" d="M417.88,41.66l-11.59-3.23c-4.26-1.19-7.69-4.34-9.22-8.49l-2.7-7.29c-.31-.83-1.47-.83-1.78,0l-2.15,5.81c-1.83,4.94-6.32,8.41-11.56,8.93l-42.83,4.24c-1.14.11-1.14,1.77,0,1.89l42.83,4.24c5.24.52,9.73,3.98,11.56,8.93l2.15,5.81c.31.83,1.47.83,1.78,0l2.7-7.29c1.53-4.15,4.96-7.3,9.22-8.49l11.59-3.23c.93-.26.93-1.57,0-1.83Z"/>
</svg>